<?xml version="1.0" encoding="UTF-8" standalone="no"?><!DOCTYPE svg PUBLIC "-//W3C//DTD SVG 1.1//EN" "http://www.w3.org/Graphics/SVG/1.1/DTD/svg11.dtd"><svg width="100%" height="100%" viewBox="0 0 1182 1182" version="1.1" xmlns="http://www.w3.org/2000/svg" xmlns:xlink="http://www.w3.org/1999/xlink" xml:space="preserve" xmlns:serif="http://www.serif.com/" style="fill-rule:evenodd;clip-rule:evenodd;stroke-linejoin:round;stroke-miterlimit:1.5;"><path d="M450.951,396.079c0,0 13.305,-11.157 26.354,-22.159c11.541,-9.73 22.882,-19.339 24.644,-21c311.35,-293.661 575.016,112.323 291.176,143.155c-264.62,28.744 -312.372,177.35 -245.267,334.608c57.219,134.091 -37.503,204.378 -150.832,227.295c-181.388,36.68 -284.084,-167.729 -178.567,-339.093c41.874,-68.006 210.063,-166.936 409.885,-151.784c199.821,15.152 382.944,29.802 427.107,217.815c44.162,188.013 -210.423,184.835 -210.423,184.835" style="fill:none;stroke:#db1d5d;stroke-width:12.5px;"/><path d="M115.04,764.65l0,-16.246c0,0 68.396,23.574 71.231,0c11.872,-98.724 11.872,-493.62 0,-592.344c-2.835,-23.574 -71.231,-0 -71.231,-0l0,-16.246c0,0 134.473,-47.261 145.795,0c24.299,101.432 -9.72,507.158 0,608.589c1.854,19.351 58.318,0 58.318,0l0,16.246l-204.113,0Zm257.432,0l0,-16.246c0,0 66.499,16.521 57.068,0c-19.3,-33.811 -172.871,-202.863 -172.871,-202.863c0,0 169.816,-123.231 187.034,-147.878c15.983,-22.879 -83.728,0 -83.728,0l0,-16.246l177.453,0l0,16.246c0,0 -50.326,-11.257 -71.231,0c-36.102,19.439 -145.378,19.439 -145.378,116.636c0,59.16 159.055,195.087 199.947,234.105c10.95,10.448 45.405,0 45.405,0l0,16.246l-193.699,0Z" style="fill-rule:nonzero;"/><path d="M632.01,972.928l0,-16.246c0,0 52.802,18.104 54.569,0c9.095,-93.17 9.095,-465.849 0,-559.019c-1.767,-18.104 -54.569,0 -54.569,0l0,-16.246l129.133,0c0,0 -9.164,161.346 0,121.635c9.164,-39.712 25.341,-71.162 48.529,-94.35c23.188,-23.188 51.584,-34.782 85.186,-34.782c29.159,0 56.791,7.915 82.895,23.744c26.104,15.829 47.349,38.601 63.733,68.315c16.385,29.714 24.577,65.399 24.577,107.055c0,41.656 -8.192,77.41 -24.577,107.263c-16.385,29.853 -37.629,52.764 -63.733,68.732c-26.104,15.968 -53.736,23.952 -82.895,23.952c-33.602,0 -61.998,-11.733 -85.186,-35.199c-23.188,-23.466 -39.365,-54.916 -48.529,-94.35c-9.164,-39.434 -9.025,261.042 0,313.251c3.075,17.787 54.152,0 54.152,0l0,16.246l-183.285,0Zm247.851,-222.441c21.661,0 39.989,-7.012 54.985,-21.036c14.996,-14.024 26.382,-34.297 34.158,-60.817c7.776,-26.521 11.664,-58.387 11.664,-95.6c0,-37.212 -3.888,-69.01 -11.664,-95.391c-7.776,-26.382 -19.162,-46.515 -34.158,-60.401c-14.996,-13.885 -33.325,-20.828 -54.985,-20.828c-20.828,0 -40.267,6.873 -58.318,20.62c-18.051,13.746 -32.63,33.811 -43.738,60.192c-11.108,26.382 -16.662,58.318 -16.662,95.808c0,37.49 5.554,69.496 16.662,96.016c11.108,26.521 25.688,46.724 43.738,60.609c18.051,13.885 37.49,20.828 58.318,20.828Z" style="fill-rule:nonzero;"/></svg>